<svg width="140" height="34" viewBox="0 0 140 34" fill="none" xmlns="http://www.w3.org/2000/svg">
<path d="M8.19608 6.57216C6.49017 6.5831 5.11619 7.98483 5.12721 9.70302L5.22697 25.2583C5.23799 26.9764 6.62984 28.3604 8.33575 28.3495L23.7799 28.2504C25.4858 28.2395 26.8598 26.8378 26.8488 25.1196L26.8021 17.8419C26.8003 17.5658 27.0211 17.3405 27.2953 17.3388L29.3913 17.3253C29.6654 17.3236 29.8891 17.546 29.8909 17.8221L29.9376 25.0998C29.9596 28.5361 27.2117 31.3396 23.7998 31.3615L8.35571 31.4605C4.94388 31.4824 2.16019 28.7144 2.13815 25.2781L2.03838 9.72283C2.01634 6.28646 4.7643 3.48299 8.17612 3.46111L15.4018 3.41477C15.6759 3.41301 15.8996 3.63544 15.9014 3.91157L15.9149 6.02264C15.9167 6.29878 15.6959 6.52406 15.4217 6.52581L8.19608 6.57216Z" fill="black"/>
<path d="M20.2554 3.38364C19.9813 3.38539 19.7604 3.61067 19.7622 3.88681L19.7758 5.99788C19.7775 6.27401 20.0012 6.49644 20.2754 6.49468L22.3714 6.48124C22.6455 6.47948 22.8663 6.2542 22.8646 5.97807L22.851 3.867C22.8493 3.59086 22.6256 3.36843 22.3514 3.37019L20.2554 3.38364Z" fill="black"/>
<path d="M27.2053 3.33906C26.9311 3.34082 26.7103 3.5661 26.7121 3.84223L26.7256 5.9533C26.7274 6.22944 26.9511 6.45187 27.2252 6.45011L29.3212 6.43667C29.5954 6.43491 29.8162 6.20963 29.8144 5.93349L29.8009 3.82242C29.7991 3.54629 29.5754 3.32386 29.3013 3.32562L27.2053 3.33906Z" fill="black"/>
<path d="M26.757 10.8421C26.7552 10.566 26.976 10.3407 27.2502 10.3389L29.3462 10.3255C29.6203 10.3237 29.844 10.5461 29.8458 10.8223L29.8593 12.9333C29.8611 13.2095 29.6403 13.4348 29.3661 13.4365L27.2701 13.45C26.996 13.4517 26.7723 13.2293 26.7705 12.9532L26.757 10.8421Z" fill="black"/>
<path d="M20.6112 23.5647C19.8198 24.1597 18.8081 24.6037 17.5762 24.8967C16.4091 25.1742 15.3578 25.245 14.4223 25.109C13.4853 24.9664 12.7001 24.6395 12.0668 24.1282C11.4384 23.6088 10.9957 22.9178 10.7386 22.055L10.6875 21.881L14.1012 21.0691L14.1316 21.155C14.2314 21.4346 14.4151 21.6633 14.6827 21.8409C14.9487 22.0121 15.2786 22.1198 15.6723 22.1641C16.0661 22.2083 16.4996 22.1742 16.9729 22.0616C17.4397 21.9506 17.8296 21.7889 18.1427 21.5765C18.4557 21.3642 18.6786 21.1181 18.8115 20.8383C18.9509 20.5569 18.9861 20.2693 18.9172 19.9755L18.9149 19.9657C18.8214 19.5673 18.5776 19.3012 18.1835 19.1674C17.7893 19.0337 17.1613 18.9831 16.2996 19.0156L14.7838 19.0762C13.2366 19.1339 12.0407 18.8943 11.196 18.3575C10.3578 17.8191 9.80927 16.9981 9.55043 15.8944L9.54813 15.8846C9.33865 14.9622 9.39417 14.1044 9.71468 13.3111C10.0337 12.5113 10.5677 11.8258 11.3168 11.2547C12.0644 10.677 12.9763 10.2601 14.0526 10.0041C15.2262 9.72504 16.2619 9.67523 17.1596 9.85471C18.0624 10.0261 18.8132 10.3819 19.4122 10.922C20.0097 11.4556 20.4421 12.1319 20.7095 12.9508L20.7468 13.0661L17.4401 13.8525L17.3954 13.7494C17.273 13.4613 17.0861 13.2334 16.8346 13.0657C16.588 12.8899 16.2848 12.7793 15.925 12.7339C15.5652 12.6885 15.1681 12.7174 14.7337 12.8207C14.3123 12.921 13.9637 13.0694 13.6881 13.2659C13.4109 13.4559 13.2133 13.6787 13.0953 13.9343C12.9822 14.1819 12.9586 14.446 13.0245 14.7269L13.0268 14.7367C13.1217 15.1416 13.3661 15.4247 13.76 15.5862C14.1587 15.7395 14.7543 15.7979 15.5466 15.7611L17.0623 15.7005C18.629 15.6382 19.8383 15.847 20.6901 16.327C21.5405 16.8005 22.0997 17.6086 22.3677 18.7515L22.37 18.7613C22.5952 19.7212 22.5546 20.6134 22.2482 21.4378C21.9468 22.2542 21.4011 22.9631 20.6112 23.5647Z" fill="black"/>
<path d="M43.9136 26.2161C45.3631 26.2068 46.6099 25.9661 47.6538 25.4941C48.7057 25.0139 49.5108 24.3475 50.0691 23.4949C50.6354 22.6341 50.9148 21.6201 50.9073 20.4527L50.9072 20.4405C50.8984 19.0609 50.4686 17.978 49.618 17.1916C48.7754 16.4051 47.4307 15.826 45.5841 15.4541L43.7334 15.0864C42.7093 14.8807 41.9666 14.5998 41.5053 14.2435C41.0519 13.8791 40.8234 13.4111 40.8198 12.8397L40.8197 12.8275C40.8169 12.3867 40.9393 12.0063 41.1869 11.6863C41.4344 11.3582 41.7831 11.1029 42.2329 10.9204C42.6828 10.7379 43.2056 10.6448 43.8016 10.641C44.4136 10.637 44.9498 10.7275 45.41 10.9123C45.8782 11.0889 46.2503 11.3355 46.5261 11.6521C46.81 11.9686 46.9896 12.3389 47.0648 12.7629L47.0899 12.9097L50.5205 12.8877L50.5074 12.7286C50.4286 11.7413 50.113 10.8658 49.5604 10.102C49.0078 9.33 48.2429 8.72673 47.2656 8.29217C46.2964 7.8494 45.1353 7.63235 43.7823 7.64103C42.4938 7.64929 41.3517 7.8852 40.3561 8.34873C39.3604 8.80411 38.5792 9.44178 38.0127 10.2618C37.4461 11.0817 37.1664 12.0387 37.1734 13.1325L37.1735 13.1448C37.1821 14.4835 37.5998 15.5788 38.4267 16.4307C39.2537 17.2825 40.5743 17.8904 42.3887 18.2543L44.2273 18.6221C45.3159 18.8437 46.0909 19.1285 46.5522 19.4766C47.0215 19.8246 47.258 20.2884 47.2617 20.868L47.2618 20.8802C47.2647 21.3292 47.1263 21.7301 46.8467 22.0829C46.5751 22.4275 46.1943 22.6993 45.7043 22.8984C45.2143 23.0975 44.6432 23.1991 43.9909 23.2033C43.3144 23.2076 42.7138 23.1176 42.1892 22.9332C41.6645 22.7488 41.2441 22.4943 40.9279 22.1698C40.6198 21.8371 40.4401 21.4505 40.389 21.01L40.3761 20.8876L36.8609 20.9102L36.8742 21.106C36.9534 22.1504 37.2854 23.0585 37.8702 23.8303C38.463 24.5939 39.2721 25.1846 40.2976 25.6025C41.3231 26.0204 42.5284 26.225 43.9136 26.2161Z" fill="black"/>
<path d="M53.056 25.7044L56.5833 25.6817L56.5333 17.8819C56.5294 17.2697 56.6306 16.7384 56.8372 16.2881C57.0517 15.8377 57.3515 15.4889 57.7365 15.2415C58.1294 14.9859 58.5957 14.8564 59.1353 14.8529C59.9728 14.8475 60.5905 15.0885 60.9882 15.5757C61.386 16.063 61.5879 16.7842 61.594 17.7392L61.6447 25.6493L65.172 25.6267L65.1161 16.9085C65.1058 15.2922 64.7072 14.0498 63.9204 13.1814C63.1417 12.3047 62.0114 11.8711 60.5296 11.8806C59.5793 11.8867 58.7834 12.1041 58.1419 12.5327C57.5004 12.9613 57.0289 13.5439 56.7276 14.2806L56.5102 14.282L56.4968 12.2004L52.9695 12.223L53.056 25.7044Z" fill="black"/>
<path d="M71.2263 25.796C71.8061 25.7923 72.3412 25.7113 72.8314 25.553C73.3297 25.3866 73.7631 25.1552 74.1317 24.859C74.5082 24.5545 74.8079 24.1934 75.0307 23.7756L75.2482 23.7742L75.2596 25.562L78.7386 25.5396L78.6796 16.3317C78.6734 15.3766 78.4508 14.5617 78.0115 13.8869C77.5803 13.204 76.9529 12.6855 76.1291 12.3316C75.3053 11.9696 74.3056 11.7923 73.1298 11.7998C72.0185 11.807 71.041 11.9765 70.1975 12.3084C69.3621 12.6403 68.6966 13.1018 68.2011 13.6927C67.7136 14.2836 67.4241 14.9753 67.3325 15.7677L67.3212 15.878L70.5827 15.8571L70.6066 15.8079C70.7409 15.4071 71.0047 15.0992 71.3979 14.8845C71.7992 14.6615 72.3179 14.548 72.9541 14.5439C73.6789 14.5392 74.2316 14.6949 74.6121 15.0108C75.0006 15.3185 75.1968 15.7662 75.2006 16.354L75.2281 20.6519C75.2312 21.1253 75.1091 21.5547 74.8619 21.9399C74.6147 22.3171 74.2783 22.6172 73.8529 22.8403C73.4275 23.0635 72.941 23.1768 72.3934 23.1803C71.7814 23.1842 71.2811 23.0405 70.8927 22.7491C70.5043 22.4577 70.3084 22.0549 70.3051 21.5406L70.3049 21.5161C70.3018 21.0263 70.4845 20.6374 70.8531 20.3493C71.2218 20.0612 71.7844 19.8943 72.5412 19.8487L76.9605 19.5264L76.9465 17.3469L71.9958 17.6848C70.3455 17.7933 69.0756 18.1974 68.1862 18.897C67.2967 19.5884 66.8558 20.5423 66.8636 21.7586L66.8638 21.7831C66.869 22.5994 67.0588 23.3125 67.4332 23.9223C67.8075 24.524 68.3219 24.9901 68.9763 25.3206C69.6388 25.6429 70.3888 25.8014 71.2263 25.796Z" fill="black"/>
<path d="M81.2325 29.9931L84.7598 29.9705L84.7173 23.3462L84.9348 23.3448C85.1634 23.8331 85.4721 24.2515 85.8609 24.6001C86.2578 24.9486 86.7145 25.2191 87.2312 25.4117C87.7559 25.5961 88.3242 25.6863 88.9363 25.6824C90.0556 25.6752 91.0162 25.3915 91.818 24.8313C92.6197 24.271 93.2347 23.4711 93.663 22.4316C94.0912 21.3921 94.3007 20.1499 94.2914 18.7051L94.2912 18.6806C94.282 17.2439 94.0527 16.0127 93.6031 14.987C93.1616 13.953 92.5364 13.157 91.7275 12.5989C90.9185 12.0408 89.9584 11.7654 88.847 11.7725C88.2189 11.7765 87.6477 11.8741 87.1335 12.0651C86.6193 12.248 86.17 12.5121 85.7856 12.8575C85.4093 13.2027 85.1059 13.6169 84.8755 14.1001L84.658 14.1014L84.6447 12.0199L81.1174 12.0425L81.2325 29.9931ZM87.7093 22.727C87.0972 22.7309 86.5607 22.5751 86.0996 22.2597C85.6466 21.9442 85.2933 21.4894 85.0399 20.8951C84.7863 20.2926 84.657 19.5832 84.6517 18.7669L84.6516 18.7424C84.6462 17.9098 84.7625 17.1988 85.0003 16.6095C85.2461 16.012 85.5935 15.5526 86.0424 15.2314C86.4994 14.9101 87.038 14.7474 87.6581 14.7434C88.2862 14.7394 88.8228 14.8952 89.2677 15.2107C89.7208 15.5261 90.07 15.9811 90.3154 16.5754C90.5689 17.1697 90.6982 17.8791 90.7035 18.7036L90.7037 18.7281C90.709 19.5525 90.5887 20.2635 90.3429 20.861C90.1051 21.4585 89.7618 21.9179 89.3128 22.2391C88.8719 22.5603 88.3374 22.7229 87.7093 22.727Z" fill="black"/>
<path d="M96.5824 25.4252L108.131 25.3511L108.111 22.3022L100.211 22.3529L100.182 17.8836L107.636 17.8358L107.617 14.995L100.164 15.0428L100.137 10.7817L108.037 10.731L108.017 7.68211L96.4691 7.75618L96.5824 25.4252Z" fill="black"/>
<path d="M115.381 25.5128C116.323 25.5068 117.135 25.3015 117.817 24.8972C118.499 24.4846 119.007 23.914 119.34 23.1853L119.558 23.1839L119.571 25.2778L123.098 25.2551L122.979 6.61878L119.452 6.64141L119.499 13.9515L119.281 13.9529C118.946 13.2203 118.423 12.644 117.712 12.2241C117.008 11.8041 116.202 11.597 115.292 11.6029C114.164 11.6101 113.2 11.8939 112.398 12.4541C111.596 13.0144 110.981 13.8142 110.553 14.8538C110.133 15.8932 109.927 17.1354 109.936 18.5802L109.937 18.6047C109.946 20.0414 110.171 21.2767 110.613 22.3107C111.062 23.3445 111.692 24.1405 112.501 24.6986C113.317 25.2485 114.278 25.5199 115.381 25.5128ZM116.558 22.5419C115.938 22.5459 115.401 22.3902 114.948 22.0747C114.495 21.7592 114.146 21.3043 113.9 20.71C113.655 20.1156 113.53 19.4062 113.524 18.5817L113.524 18.5572C113.519 17.7327 113.635 17.0259 113.873 16.4366C114.111 15.8391 114.454 15.3798 114.903 15.0585C115.36 14.729 115.894 14.5623 116.507 14.5584C117.127 14.5544 117.663 14.7143 118.116 15.0379C118.577 15.3533 118.931 15.8082 119.176 16.4026C119.429 16.9887 119.559 17.6981 119.564 18.5307L119.564 18.5552C119.57 19.3715 119.449 20.0784 119.203 20.6759C118.966 21.2734 118.622 21.7328 118.173 22.054C117.724 22.3753 117.186 22.5379 116.558 22.5419Z" fill="black"/>
<path d="M125.781 25.2379L129.308 25.2153L129.222 11.7339L125.695 11.7566L125.781 25.2379ZM127.457 9.67584C128.005 9.67233 128.471 9.4775 128.855 9.09135C129.239 8.69705 129.429 8.22643 129.426 7.6795C129.422 7.12441 129.226 6.65627 128.837 6.27508C128.448 5.88574 127.979 5.69282 127.432 5.69633C126.892 5.69979 126.426 5.8987 126.034 6.29306C125.642 6.67926 125.448 7.1499 125.451 7.70499C125.455 8.25192 125.655 8.72003 126.052 9.10933C126.449 9.49046 126.918 9.6793 127.457 9.67584Z" fill="black"/>
<path d="M137.391 25.2124C137.737 25.2102 138.063 25.1918 138.369 25.1572C138.675 25.1226 138.937 25.0842 139.154 25.042L139.137 22.3849C138.968 22.4023 138.807 22.4196 138.654 22.4369C138.509 22.446 138.324 22.4513 138.098 22.4528C137.502 22.4566 137.067 22.3206 136.791 22.0448C136.523 21.7608 136.388 21.3168 136.384 20.7127L136.343 14.3822L139.085 14.3646L139.068 11.6708L136.326 11.6884L136.305 8.46805L132.742 8.4909L132.762 11.7112L130.709 11.7244L130.726 14.4182L132.78 14.4051L132.825 21.5559C132.834 22.862 133.194 23.8026 133.907 24.3776C134.619 24.9445 135.781 25.2228 137.391 25.2124Z" fill="black"/>
</svg>
